<svg xmlns="http://www.w3.org/2000/svg" viewBox="0 0 64 64">
  <rect width="64" height="64" rx="14" fill="#050505"/>
  <path
    d="M32 48 17.5 34.8C9.4 27.4 14.7 14 25.4 14c4.1 0 7.8 2.2 9.9 5.7C37.4 16.2 41.1 14 45.2 14 55.9 14 61.2 27.4 53.1 34.8L38.6 48l-3.9-4.2 14.5-13.2c4.6-4.2 1.6-11.8-4-11.8-3.3 0-6 2.6-7.4 5.8L32 37.1l-5.8-12.5c-1.4-3.2-4.1-5.8-7.4-5.8-5.6 0-8.6 7.6-4 11.8l14.5 13.2L32 48Z"
    fill="#fff"
  />
  <path
    d="M8 34.5c5.7-9.2 14.7-9.2 24 0 9.3 9.2 18.3 9.2 24 0"
    fill="none"
    stroke="#bdbdbd"
    stroke-width="5.5"
    stroke-linecap="round"
    opacity="0.8"
  />
</svg>
